<?xml version="1.0" encoding="utf-8"?>
<!-- Generator: Adobe Illustrator 16.0.0, SVG Export Plug-In . SVG Version: 6.00 Build 0)  -->
<!DOCTYPE svg PUBLIC "-//W3C//DTD SVG 1.1//EN" "http://www.w3.org/Graphics/SVG/1.1/DTD/svg11.dtd">
<svg version="1.1" id="Layer_2" xmlns="http://www.w3.org/2000/svg" xmlns:xlink="http://www.w3.org/1999/xlink" x="0px" y="0px"
	 width="500px" height="500px" viewBox="0 0 500 500" enable-background="new 0 0 500 500" xml:space="preserve">
<path fill="none" stroke="#000000" stroke-width="28" stroke-linecap="round" stroke-miterlimit="10" d="M308,381.5H55.5
	c-7.732,0-14-6.268-14-14v-263c0-7.732,6.268-14,14-14h386c7.732,0,14,6.268,14,14v263c0,7.732-6.268,14-14,14h-47"/>
<line fill="none" stroke="#000000" stroke-width="24" stroke-linecap="round" stroke-miterlimit="10" x1="250" y1="229.5" x2="394.5" y2="445.5"/>
<line fill="none" stroke="#000000" stroke-width="18" stroke-linecap="round" stroke-miterlimit="10" x1="292.384" y1="240.31" x2="342.229" y2="253.47"/>
<line fill="none" stroke="#000000" stroke-width="18" stroke-linecap="round" stroke-miterlimit="10" x1="288.731" y1="210.823" x2="335.323" y2="188.978"/>
<line fill="none" stroke="#000000" stroke-width="18" stroke-linecap="round" stroke-miterlimit="10" x1="267.035" y1="190.528" x2="288.693" y2="143.893"/>
<line fill="none" stroke="#000000" stroke-width="18" stroke-linecap="round" stroke-miterlimit="10" x1="237.371" y1="188.853" x2="224.006" y2="139.159"/>
<line fill="none" stroke="#000000" stroke-width="18" stroke-linecap="round" stroke-miterlimit="10" x1="213.523" y1="206.572" x2="171.311" y2="176.976"/>
<line fill="none" stroke="#000000" stroke-width="18" stroke-linecap="round" stroke-miterlimit="10" x1="206.57" y1="235.457" x2="155.088" y2="239.775"/>
<line fill="none" stroke="#000000" stroke-width="18" stroke-linecap="round" stroke-miterlimit="10" x1="219.741" y1="262.088" x2="182.875" y2="298.381"/>
<line fill="none" stroke="#000000" stroke-width="18" stroke-linecap="round" stroke-miterlimit="10" x1="246.918" y1="274.094" x2="241.761" y2="325.57"/>
</svg>
