<?xml version="1.0" encoding="utf-8"?>
<!-- Generator: Adobe Illustrator 16.0.0, SVG Export Plug-In . SVG Version: 6.00 Build 0)  -->
<!DOCTYPE svg PUBLIC "-//W3C//DTD SVG 1.1//EN" "http://www.w3.org/Graphics/SVG/1.1/DTD/svg11.dtd">
<svg version="1.1" xmlns="http://www.w3.org/2000/svg" xmlns:xlink="http://www.w3.org/1999/xlink" x="0px" y="0px" width="458px"
	 height="358px" viewBox="0 0 458 358" enable-background="new 0 0 458 358" xml:space="preserve">
<g id="Length">
	
		<line fill="none" stroke="#000000" stroke-width="19" stroke-linecap="round" stroke-miterlimit="10" x1="31.334" y1="187.998" x2="31.334" y2="330.666"/>
	
		<line fill="none" stroke="#000000" stroke-width="19" stroke-linecap="round" stroke-miterlimit="10" x1="427.667" y1="187.998" x2="427.667" y2="330.666"/>
	<g>
		<g>
			
				<line fill="none" stroke="#000000" stroke-width="19" stroke-linecap="round" stroke-miterlimit="10" x1="61.333" y1="259.332" x2="397.931" y2="259.332"/>
			<g>
				<polygon points="116.105,326.937 127.38,314.83 67.677,259.347 127.38,203.849 116.105,191.742 43.407,259.347 				"/>
			</g>
			<g>
				<polygon points="343.159,326.937 331.882,314.83 391.587,259.347 331.882,203.849 343.159,191.742 415.856,259.347 				"/>
			</g>
		</g>
	</g>
	<path fill="none" stroke="#000000" stroke-width="19" stroke-miterlimit="10" d="M427.667,44.665c0-7.732-4.939-14-11.031-14
		H42.366c-6.092,0-11.031,6.268-11.031,14v95.333c0,7.732,4.939,14,11.031,14h374.27c6.092,0,11.031-6.268,11.031-14V44.665z"/>
	
		<line fill="none" stroke="#000000" stroke-width="16" stroke-linecap="round" stroke-miterlimit="10" x1="76.773" y1="153.999" x2="76.773" y2="69.999"/>
	
		<line fill="none" stroke="#000000" stroke-width="12" stroke-linecap="round" stroke-miterlimit="10" x1="106.714" y1="153.999" x2="106.714" y2="95.332"/>
	
		<line fill="none" stroke="#000000" stroke-width="16" stroke-linecap="round" stroke-miterlimit="10" x1="137.969" y1="153.999" x2="137.969" y2="69.999"/>
	
		<line fill="none" stroke="#000000" stroke-width="12" stroke-linecap="round" stroke-miterlimit="10" x1="167.911" y1="153.999" x2="167.911" y2="95.332"/>
	
		<line fill="none" stroke="#000000" stroke-width="16" stroke-linecap="round" stroke-miterlimit="10" x1="199.166" y1="153.999" x2="199.166" y2="69.999"/>
	
		<line fill="none" stroke="#000000" stroke-width="12" stroke-linecap="round" stroke-miterlimit="10" x1="229.107" y1="153.999" x2="229.107" y2="95.332"/>
	
		<line fill="none" stroke="#000000" stroke-width="16" stroke-linecap="round" stroke-miterlimit="10" x1="260.362" y1="153.999" x2="260.362" y2="69.999"/>
	
		<line fill="none" stroke="#000000" stroke-width="12" stroke-linecap="round" stroke-miterlimit="10" x1="290.303" y1="153.999" x2="290.303" y2="95.332"/>
	
		<line fill="none" stroke="#000000" stroke-width="16" stroke-linecap="round" stroke-miterlimit="10" x1="321.558" y1="153.999" x2="321.558" y2="69.999"/>
	
		<line fill="none" stroke="#000000" stroke-width="12" stroke-linecap="round" stroke-miterlimit="10" x1="351.499" y1="153.999" x2="351.499" y2="95.332"/>
	
		<line fill="none" stroke="#000000" stroke-width="16" stroke-linecap="round" stroke-miterlimit="10" x1="382.753" y1="153.999" x2="382.753" y2="69.999"/>
</g>
<g id="Angle" display="none">
	<g display="inline">
		<path fill="none" stroke="#000000" stroke-width="26" stroke-linecap="round" stroke-miterlimit="10" d="M438.667,312.417H49.333
			c-13.2,0-15.667-6.869-5.48-15.266L359.177,37.23"/>
	</g>
	<path display="inline" fill="none" stroke="#000000" stroke-width="17" stroke-miterlimit="10" d="M177.26,182.994
		c29.865,30.936,48.237,73.041,48.237,119.436c0,4.364-0.163,8.691-0.482,12.974"/>
	
		<text transform="matrix(0.9802 0 0 1 77.4004 128.1538)" display="inline" stroke="#000000" stroke-width="8" stroke-linecap="round" stroke-linejoin="round" stroke-miterlimit="10" font-family="'MyriadPro-Regular'" font-size="103.0353" letter-spacing="7.141">X°</text>
	
		<line display="inline" fill="none" stroke="#000000" stroke-width="9" stroke-linecap="round" stroke-miterlimit="10" x1="228.472" y1="290.981" x2="254.441" y2="289.611"/>
	
		<line display="inline" fill="none" stroke="#000000" stroke-width="9" stroke-linecap="round" stroke-miterlimit="10" x1="229.324" y1="274.234" x2="252.562" y2="270.807"/>
	
		<line display="inline" fill="none" stroke="#000000" stroke-width="9" stroke-linecap="round" stroke-miterlimit="10" x1="223.37" y1="258.519" x2="248.935" y2="252.262"/>
	
		<line display="inline" fill="none" stroke="#000000" stroke-width="9" stroke-linecap="round" stroke-miterlimit="10" x1="219.283" y1="242.564" x2="243.592" y2="234.139"/>
	
		<line display="inline" fill="none" stroke="#000000" stroke-width="9" stroke-linecap="round" stroke-miterlimit="10" x1="212.323" y1="227.635" x2="236.575" y2="216.593"/>
	
		<line display="inline" fill="none" stroke="#000000" stroke-width="9" stroke-linecap="round" stroke-miterlimit="10" x1="204.708" y1="213.115" x2="227.951" y2="199.781"/>
	
		<line display="inline" fill="none" stroke="#000000" stroke-width="9" stroke-linecap="round" stroke-miterlimit="10" x1="195.633" y1="199.482" x2="217.793" y2="183.849"/>
</g>
</svg>
