<?xml version="1.0" encoding="utf-8"?>
<!-- Generator: Adobe Illustrator 24.3.0, SVG Export Plug-In . SVG Version: 6.00 Build 0)  -->
<svg version="1.1" id="Layer_3" xmlns="http://www.w3.org/2000/svg" xmlns:xlink="http://www.w3.org/1999/xlink" x="0px" y="0px"
	 viewBox="0 0 458 358" style="enable-background:new 0 0 458 358;" xml:space="preserve">
<style type="text/css">
	.st0{fill:none;stroke:#000000;stroke-width:19;stroke-linecap:round;stroke-miterlimit:10;}
	.st1{display:none;}
	.st2{font-family:'Gabriola';}
	.st3{font-size:146px;}
	.st4{font-size:300px;}
</style>
<g>
	<path d="M229.5,39c37.5,0,72.8,14.6,99.3,41.2c26.5,26.5,41.2,61.8,41.2,99.3s-14.6,72.8-41.2,99.3C302.3,305.4,267,320,229.5,320
		s-72.8-14.6-99.3-41.2C103.6,252.3,89,217,89,179.5s14.6-72.8,41.2-99.3C156.7,53.6,192,39,229.5,39 M229.5,18
		C140.3,18,68,90.3,68,179.5S140.3,341,229.5,341S391,268.7,391,179.5S318.7,18,229.5,18L229.5,18z"/>
</g>
<g>
	<g>
		<line class="st0" x1="229.5" y1="179.5" x2="323.1" y2="179.2"/>
		<g>
			<polygon points="314.9,207.6 364,179 314.7,150.8 			"/>
		</g>
	</g>
</g>
<text transform="matrix(1 0 0 1 247.8037 141.7095)" class="st1 st2 st3">r</text>
<text transform="matrix(1 0 0 1 133.1396 224.9883)" class="st2 st4">r</text>
</svg>
